<mxfile host="Electron" agent="Mozilla/5.0 (Windows NT 10.0; Win64; x64) AppleWebKit/537.36 (KHTML, like Gecko) draw.io/27.0.9 Chrome/134.0.6998.205 Electron/35.4.0 Safari/537.36" version="27.0.9">
  <diagram id="university_mess_login" name="Login Sequence">
    <mxGraphModel dx="1042" dy="660" grid="1" gridSize="10" guides="1" tooltips="1" connect="1" arrows="1" fold="1" page="1" pageScale="1" pageWidth="850" pageHeight="1100" math="0" shadow="0">
      <root>
        <mxCell id="0" />
        <mxCell id="1" parent="0" />
        <mxCell id="2" value="Customer&#xa;(Student/Faculty)" style="shape=umlLifeline;perimeter=lifelinePerimeter;whiteSpace=wrap;html=1;container=1;collapsible=0;recursiveResize=0;outlineConnect=0;" parent="1" vertex="1">
          <mxGeometry x="120" y="80" width="100" height="400" as="geometry" />
        </mxCell>
        <mxCell id="3" value="" style="html=1;points=[];perimeter=orthogonalPerimeter;" parent="2" vertex="1">
          <mxGeometry x="45" y="80" width="10" height="290" as="geometry" />
        </mxCell>
        <mxCell id="4" value="Login UI" style="shape=umlLifeline;perimeter=lifelinePerimeter;whiteSpace=wrap;html=1;container=1;collapsible=0;recursiveResize=0;outlineConnect=0;" parent="1" vertex="1">
          <mxGeometry x="300" y="80" width="100" height="400" as="geometry" />
        </mxCell>
        <mxCell id="5" value="" style="html=1;points=[];perimeter=orthogonalPerimeter;" parent="4" vertex="1">
          <mxGeometry x="45" y="80" width="10" height="290" as="geometry" />
        </mxCell>
        <mxCell id="6" value="Authentication&#xa;Service" style="shape=umlLifeline;perimeter=lifelinePerimeter;whiteSpace=wrap;html=1;container=1;collapsible=0;recursiveResize=0;outlineConnect=0;" parent="1" vertex="1">
          <mxGeometry x="480" y="80" width="100" height="400" as="geometry" />
        </mxCell>
        <mxCell id="7" value="" style="html=1;points=[];perimeter=orthogonalPerimeter;" parent="6" vertex="1">
          <mxGeometry x="45" y="120" width="10" height="60" as="geometry" />
        </mxCell>
        <mxCell id="8" value="User Database" style="shape=umlLifeline;perimeter=lifelinePerimeter;whiteSpace=wrap;html=1;container=1;collapsible=0;recursiveResize=0;outlineConnect=0;" parent="1" vertex="1">
          <mxGeometry x="660" y="80" width="100" height="400" as="geometry" />
        </mxCell>
        <mxCell id="9" value="" style="html=1;points=[];perimeter=orthogonalPerimeter;" parent="8" vertex="1">
          <mxGeometry x="45" y="140" width="10" height="30" as="geometry" />
        </mxCell>
        <mxCell id="10" value="Dashboard UI" style="shape=umlLifeline;perimeter=lifelinePerimeter;whiteSpace=wrap;html=1;container=1;collapsible=0;recursiveResize=0;outlineConnect=0;" parent="1" vertex="1">
          <mxGeometry x="840" y="80" width="100" height="400" as="geometry" />
        </mxCell>
        <mxCell id="11" value="" style="html=1;points=[];perimeter=orthogonalPerimeter;" parent="10" vertex="1">
          <mxGeometry x="45" y="280" width="10" height="30" as="geometry" />
        </mxCell>
        <mxCell id="12" value="Open Login Page" style="html=1;verticalAlign=bottom;endArrow=block;entryX=0;entryY=0;" parent="1" source="3" target="5" edge="1">
          <mxGeometry relative="1" as="geometry">
            <mxPoint x="230" y="160" as="sourcePoint" />
          </mxGeometry>
        </mxCell>
        <mxCell id="13" value="Enter Credentials" style="html=1;verticalAlign=bottom;endArrow=block;entryX=0;entryY=0.3;" parent="1" edge="1">
          <mxGeometry relative="1" as="geometry">
            <mxPoint x="175" y="200" as="sourcePoint" />
            <mxPoint x="345" y="200" as="targetPoint" />
          </mxGeometry>
        </mxCell>
        <mxCell id="14" value="Submit Credentials" style="html=1;verticalAlign=bottom;endArrow=block;entryX=0;entryY=0;" parent="1" edge="1">
          <mxGeometry relative="1" as="geometry">
            <mxPoint x="355" y="200" as="sourcePoint" />
            <mxPoint x="525" y="200" as="targetPoint" />
          </mxGeometry>
        </mxCell>
        <mxCell id="15" value="Verify Credentials" style="html=1;verticalAlign=bottom;endArrow=block;entryX=0;entryY=0;" parent="1" edge="1">
          <mxGeometry relative="1" as="geometry">
            <mxPoint x="535" y="220" as="sourcePoint" />
            <mxPoint x="705" y="220" as="targetPoint" />
          </mxGeometry>
        </mxCell>
        <mxCell id="16" value="Return User Data" style="html=1;verticalAlign=bottom;endArrow=open;dashed=1;endSize=8;exitX=0;exitY=0.95;" parent="1" edge="1">
          <mxGeometry relative="1" as="geometry">
            <mxPoint x="535" y="250" as="targetPoint" />
            <mxPoint x="705" y="250" as="sourcePoint" />
          </mxGeometry>
        </mxCell>
        <mxCell id="17" value="Authentication Result" style="html=1;verticalAlign=bottom;endArrow=open;dashed=1;endSize=8;exitX=0;exitY=0.95;" parent="1" edge="1">
          <mxGeometry relative="1" as="geometry">
            <mxPoint x="355" y="260" as="targetPoint" />
            <mxPoint x="525" y="260" as="sourcePoint" />
          </mxGeometry>
        </mxCell>
        <mxCell id="18" value="Login Success" style="html=1;verticalAlign=bottom;endArrow=open;dashed=1;endSize=8;exitX=0;exitY=0.95;" parent="1" edge="1">
          <mxGeometry relative="1" as="geometry">
            <mxPoint x="175" y="280" as="targetPoint" />
            <mxPoint x="345" y="280" as="sourcePoint" />
          </mxGeometry>
        </mxCell>
        <mxCell id="19" value="Redirect to Dashboard" style="html=1;verticalAlign=bottom;endArrow=block;entryX=0;entryY=0;" parent="1" edge="1">
          <mxGeometry relative="1" as="geometry">
            <mxPoint x="355" y="360" as="sourcePoint" />
            <mxPoint x="885" y="360" as="targetPoint" />
          </mxGeometry>
        </mxCell>
        <mxCell id="20" value="&amp;nbsp;Display Dashboard" style="html=1;verticalAlign=bottom;endArrow=open;dashed=1;endSize=8;exitX=0;exitY=0.95;" parent="1" edge="1">
          <mxGeometry relative="1" as="geometry">
            <mxPoint x="175" y="390" as="targetPoint" />
            <mxPoint x="885" y="390" as="sourcePoint" />
          </mxGeometry>
        </mxCell>
        <mxCell id="21" value="alt" style="shape=umlFrame;whiteSpace=wrap;html=1;width=40;height=20;" parent="1" vertex="1">
          <mxGeometry x="70" y="290" width="820" height="90" as="geometry" />
        </mxCell>
        <mxCell id="22" value="[Invalid credentials]" style="text;html=1;strokeColor=none;fillColor=none;align=center;verticalAlign=middle;whiteSpace=wrap;rounded=0;" parent="1" vertex="1">
          <mxGeometry x="135" y="290" width="120" height="20" as="geometry" />
        </mxCell>
        <mxCell id="23" value="" style="endArrow=none;dashed=1;html=1;dashPattern=1 3;strokeWidth=2;entryX=1;entryY=0.5;entryDx=0;entryDy=0;exitX=0;exitY=0.5;exitDx=0;exitDy=0;" parent="1" edge="1">
          <mxGeometry width="50" height="50" relative="1" as="geometry">
            <mxPoint x="90" y="335" as="sourcePoint" />
            <mxPoint x="910" y="335" as="targetPoint" />
          </mxGeometry>
        </mxCell>
        <mxCell id="24" value="[Valid credentials]" style="text;html=1;strokeColor=none;fillColor=none;align=center;verticalAlign=middle;whiteSpace=wrap;rounded=0;" parent="1" vertex="1">
          <mxGeometry x="135" y="335" width="120" height="20" as="geometry" />
        </mxCell>
        <mxCell id="25" value="Show Error Message" style="html=1;verticalAlign=bottom;endArrow=open;dashed=1;endSize=8;" parent="1" edge="1">
          <mxGeometry relative="1" as="geometry">
            <mxPoint x="175" y="315" as="targetPoint" />
            <mxPoint x="345" y="315" as="sourcePoint" />
          </mxGeometry>
        </mxCell>
        <mxCell id="9EB8AVjFU0owyf5baTvS-25" value="&lt;b&gt;&lt;font style=&quot;font-size: 18px;&quot;&gt;Sequence Daigram - Login Sequence&lt;/font&gt;&lt;/b&gt;" style="text;html=1;align=center;verticalAlign=middle;resizable=0;points=[];autosize=1;strokeColor=none;fillColor=none;" vertex="1" parent="1">
          <mxGeometry x="280" y="13" width="340" height="40" as="geometry" />
        </mxCell>
      </root>
    </mxGraphModel>
  </diagram>
</mxfile>
